<svg width="40" height="40" viewBox="0 0 40 40" fill="none" xmlns="http://www.w3.org/2000/svg">
<path d="M0 14.4C0 9.35953 0 6.83929 0.980941 4.91409C1.8438 3.22063 3.22063 1.8438 4.91409 0.980941C6.83929 0 9.35953 0 14.4 0H25.6C30.6405 0 33.1607 0 35.0859 0.980941C36.7794 1.8438 38.1562 3.22063 39.0191 4.91409C40 6.83929 40 9.35953 40 14.4V25.6C40 30.6405 40 33.1607 39.0191 35.0859C38.1562 36.7794 36.7794 38.1562 35.0859 39.0191C33.1607 40 30.6405 40 25.6 40H14.4C9.35953 40 6.83929 40 4.91409 39.0191C3.22063 38.1562 1.8438 36.7794 0.980941 35.0859C0 33.1607 0 30.6405 0 25.6V14.4Z" fill="#7D4230"/>
<path d="M0 14.4C0 9.35953 0 6.83929 0.980941 4.91409C1.8438 3.22063 3.22063 1.8438 4.91409 0.980941C6.83929 0 9.35953 0 14.4 0H25.6C30.6405 0 33.1607 0 35.0859 0.980941C36.7794 1.8438 38.1562 3.22063 39.0191 4.91409C40 6.83929 40 9.35953 40 14.4V25.6C40 30.6405 40 33.1607 39.0191 35.0859C38.1562 36.7794 36.7794 38.1562 35.0859 39.0191C33.1607 40 30.6405 40 25.6 40H14.4C9.35953 40 6.83929 40 4.91409 39.0191C3.22063 38.1562 1.8438 36.7794 0.980941 35.0859C0 33.1607 0 30.6405 0 25.6V14.4Z" fill="#7D4230"/>
<mask id="path-2-inside-1_201_242" fill="white">
<path fill-rule="evenodd" clip-rule="evenodd" d="M20.0182 6.90974C21.1245 6.90974 22.0213 7.80656 22.0213 8.91283L22.0213 31.0959C22.0213 32.2022 21.1245 33.099 20.0182 33.099V33.099C18.9119 33.099 18.0151 32.2022 18.0151 31.0959L18.0151 8.91283C18.0151 7.80656 18.9119 6.90974 20.0182 6.90974V6.90974Z"/>
<path fill-rule="evenodd" clip-rule="evenodd" d="M33.1129 20.0044C33.1129 21.1107 32.216 22.0075 31.1098 22.0075L8.92665 22.0075C7.82037 22.0075 6.92356 21.1107 6.92356 20.0044V20.0044C6.92356 18.8981 7.82038 18.0013 8.92665 18.0013L31.1098 18.0013C32.216 18.0013 33.1129 18.8981 33.1129 20.0044V20.0044Z"/>
</mask>
<path fill-rule="evenodd" clip-rule="evenodd" d="M20.0182 6.90974C21.1245 6.90974 22.0213 7.80656 22.0213 8.91283L22.0213 31.0959C22.0213 32.2022 21.1245 33.099 20.0182 33.099V33.099C18.9119 33.099 18.0151 32.2022 18.0151 31.0959L18.0151 8.91283C18.0151 7.80656 18.9119 6.90974 20.0182 6.90974V6.90974Z" fill="white"/>
<path fill-rule="evenodd" clip-rule="evenodd" d="M33.1129 20.0044C33.1129 21.1107 32.216 22.0075 31.1098 22.0075L8.92665 22.0075C7.82037 22.0075 6.92356 21.1107 6.92356 20.0044V20.0044C6.92356 18.8981 7.82038 18.0013 8.92665 18.0013L31.1098 18.0013C32.216 18.0013 33.1129 18.8981 33.1129 20.0044V20.0044Z" fill="white"/>
<path d="M31.1098 18.0013L31.1098 13.3196L31.1098 18.0013ZM31.1098 22.0075L31.1098 26.6892L31.1098 22.0075ZM22.0213 8.91283L17.3396 8.91283L22.0213 8.91283ZM22.0213 31.0959L26.703 31.0959L22.0213 31.0959ZM26.703 31.0959L26.703 8.91284L17.3396 8.91283L17.3396 31.0959L26.703 31.0959ZM13.3334 8.91283L13.3334 31.0959L22.6969 31.0959L22.6969 8.91283L13.3334 8.91283ZM8.92665 26.6892L31.1098 26.6892L31.1098 17.3257L8.92665 17.3257L8.92665 26.6892ZM31.1098 13.3196L8.92665 13.3196L8.92665 22.6831L31.1098 22.6831L31.1098 13.3196ZM31.1098 22.6831C29.6304 22.6831 28.4311 21.4838 28.4311 20.0044L37.7946 20.0044C37.7946 16.3125 34.8017 13.3196 31.1098 13.3196L31.1098 22.6831ZM11.6053 20.0044C11.6053 21.4838 10.406 22.6831 8.92665 22.6831L8.92665 13.3196C5.23473 13.3196 2.24181 16.3125 2.24181 20.0044L11.6053 20.0044ZM31.1098 26.6892C34.8017 26.6892 37.7946 23.6963 37.7946 20.0044L28.4311 20.0044C28.4311 18.525 29.6304 17.3257 31.1098 17.3257L31.1098 26.6892ZM8.92665 17.3257C10.406 17.3257 11.6053 18.525 11.6053 20.0044L2.24181 20.0044C2.24181 23.6963 5.23472 26.6892 8.92665 26.6892L8.92665 17.3257ZM22.6969 8.91283C22.6969 10.3922 21.4976 11.5915 20.0182 11.5915L20.0182 2.228C16.3263 2.228 13.3334 5.2209 13.3334 8.91283L22.6969 8.91283ZM20.0182 28.4173C21.4976 28.4173 22.6969 29.6166 22.6969 31.0959L13.3334 31.0959C13.3334 34.7879 16.3263 37.7808 20.0182 37.7808L20.0182 28.4173ZM26.703 8.91284C26.703 5.22091 23.7102 2.228 20.0182 2.228L20.0182 11.5915C18.5388 11.5915 17.3396 10.3922 17.3396 8.91283L26.703 8.91284ZM17.3396 31.0959C17.3396 29.6166 18.5388 28.4173 20.0182 28.4173L20.0182 37.7808C23.7101 37.7808 26.703 34.7879 26.703 31.0959L17.3396 31.0959Z" fill="#FFE9C5" mask="url(#path-2-inside-1_201_242)"/>
</svg>
