<svg width="1000" height="80" viewBox="0 0 1000 80" fill="none" xmlns="http://www.w3.org/2000/svg">
<path d="M0 8C0 3.58172 3.58172 0 8 0H992C996.418 0 1000 3.58172 1000 8V72C1000 76.4183 996.418 80 992 80H8.00002C3.58174 80 0 76.4183 0 72V8Z" fill="#333D30"/>
<path d="M0 59C0 57.8954 0.895431 57 2 57C3.10457 57 4 57.8954 4 59V78C4 79.1046 3.10457 80 2 80C0.895431 80 0 79.1046 0 78V59Z" fill="#515C46"/>
<path d="M6 62C6 60.8954 6.89543 60 8 60C9.10457 60 10 60.8954 10 62V78C10 79.1046 9.10457 80 8 80C6.89543 80 6 79.1046 6 78V62Z" fill="#515C46"/>
<path d="M12 59C12 57.8954 12.8954 57 14 57C15.1046 57 16 57.8954 16 59V78C16 79.1046 15.1046 80 14 80C12.8954 80 12 79.1046 12 78V59Z" fill="#515C46"/>
<path d="M18 52C18 50.8954 18.8954 50 20 50C21.1046 50 22 50.8954 22 52V78C22 79.1046 21.1046 80 20 80C18.8954 80 18 79.1046 18 78V52Z" fill="#515C46"/>
<path d="M24 44C24 42.8954 24.8954 42 26 42C27.1046 42 28 42.8954 28 44V78C28 79.1046 27.1046 80 26 80C24.8954 80 24 79.1046 24 78V44Z" fill="#515C46"/>
<path d="M30 39C30 37.8954 30.8954 37 32 37C33.1046 37 34 37.8954 34 39V78C34 79.1046 33.1046 80 32 80C30.8954 80 30 79.1046 30 78V39Z" fill="#515C46"/>
<path d="M36 42C36 40.8954 36.8954 40 38 40C39.1046 40 40 40.8954 40 42V78C40 79.1046 39.1046 80 38 80C36.8954 80 36 79.1046 36 78V42Z" fill="#515C46"/>
<path d="M42 50C42 48.8954 42.8954 48 44 48C45.1046 48 46 48.8954 46 50V78C46 79.1046 45.1046 80 44 80C42.8954 80 42 79.1046 42 78V50Z" fill="#515C46"/>
<path d="M48 44C48 42.8954 48.8954 42 50 42C51.1046 42 52 42.8954 52 44V78C52 79.1046 51.1046 80 50 80C48.8954 80 48 79.1046 48 78V44Z" fill="#515C46"/>
<path d="M54 42C54 40.8954 54.8954 40 56 40C57.1046 40 58 40.8954 58 42V78C58 79.1046 57.1046 80 56 80C54.8954 80 54 79.1046 54 78V42Z" fill="#515C46"/>
<path d="M60 39C60 37.8954 60.8954 37 62 37C63.1046 37 64 37.8954 64 39V78C64 79.1046 63.1046 80 62 80C60.8954 80 60 79.1046 60 78V39Z" fill="#515C46"/>
<path d="M66 31C66 29.8954 66.8954 29 68 29C69.1046 29 70 29.8954 70 31V78C70 79.1046 69.1046 80 68 80C66.8954 80 66 79.1046 66 78V31Z" fill="#515C46"/>
<path d="M72 35C72 33.8954 72.8954 33 74 33C75.1046 33 76 33.8954 76 35V78C76 79.1046 75.1046 80 74 80C72.8954 80 72 79.1046 72 78V35Z" fill="#515C46"/>
<path d="M78 39C78 37.8954 78.8954 37 80 37C81.1046 37 82 37.8954 82 39V78C82 79.1046 81.1046 80 80 80C78.8954 80 78 79.1046 78 78V39Z" fill="#515C46"/>
<path d="M84 44C84 42.8954 84.8954 42 86 42C87.1046 42 88 42.8954 88 44V78C88 79.1046 87.1046 80 86 80C84.8954 80 84 79.1046 84 78V44Z" fill="#515C46"/>
<path d="M90 50C90 48.8954 90.8954 48 92 48C93.1046 48 94 48.8954 94 50V78C94 79.1046 93.1046 80 92 80C90.8954 80 90 79.1046 90 78V50Z" fill="#515C46"/>
<path d="M96 55C96 53.8954 96.8954 53 98 53C99.1046 53 100 53.8954 100 55V78C100 79.1046 99.1046 80 98 80C96.8954 80 96 79.1046 96 78V55Z" fill="#515C46"/>
<path d="M102 62C102 60.8954 102.895 60 104 60C105.105 60 106 60.8954 106 62V78C106 79.1046 105.105 80 104 80C102.895 80 102 79.1046 102 78V62Z" fill="#515C46"/>
<path d="M108 59C108 57.8954 108.895 57 110 57C111.105 57 112 57.8954 112 59V78C112 79.1046 111.105 80 110 80C108.895 80 108 79.1046 108 78V59Z" fill="#515C46"/>
<path d="M114 62C114 60.8954 114.895 60 116 60C117.105 60 118 60.8954 118 62V78C118 79.1046 117.105 80 116 80C114.895 80 114 79.1046 114 78V62Z" fill="#515C46"/>
<path d="M120 59C120 57.8954 120.895 57 122 57C123.105 57 124 57.8954 124 59V78C124 79.1046 123.105 80 122 80C120.895 80 120 79.1046 120 78V59Z" fill="#515C46"/>
<path d="M126 52C126 50.8954 126.895 50 128 50C129.105 50 130 50.8954 130 52V78C130 79.1046 129.105 80 128 80C126.895 80 126 79.1046 126 78V52Z" fill="#515C46"/>
<path d="M132 44C132 42.8954 132.895 42 134 42C135.105 42 136 42.8954 136 44V78C136 79.1046 135.105 80 134 80C132.895 80 132 79.1046 132 78V44Z" fill="#515C46"/>
<path d="M138 39C138 37.8954 138.895 37 140 37C141.105 37 142 37.8954 142 39V78C142 79.1046 141.105 80 140 80C138.895 80 138 79.1046 138 78V39Z" fill="#515C46"/>
<path d="M144 42C144 40.8954 144.895 40 146 40C147.105 40 148 40.8954 148 42V78C148 79.1046 147.105 80 146 80C144.895 80 144 79.1046 144 78V42Z" fill="#515C46"/>
<path d="M150 50C150 48.8954 150.895 48 152 48C153.105 48 154 48.8954 154 50V78C154 79.1046 153.105 80 152 80C150.895 80 150 79.1046 150 78V50Z" fill="#515C46"/>
<path d="M156 44C156 42.8954 156.895 42 158 42C159.105 42 160 42.8954 160 44V78C160 79.1046 159.105 80 158 80C156.895 80 156 79.1046 156 78V44Z" fill="#515C46"/>
<path d="M162 42C162 40.8954 162.895 40 164 40C165.105 40 166 40.8954 166 42V78C166 79.1046 165.105 80 164 80C162.895 80 162 79.1046 162 78V42Z" fill="#515C46"/>
<path d="M168 39C168 37.8954 168.895 37 170 37C171.105 37 172 37.8954 172 39V78C172 79.1046 171.105 80 170 80C168.895 80 168 79.1046 168 78V39Z" fill="#515C46"/>
<path d="M174 31C174 29.8954 174.895 29 176 29C177.105 29 178 29.8954 178 31V78C178 79.1046 177.105 80 176 80C174.895 80 174 79.1046 174 78V31Z" fill="#515C46"/>
<path d="M180 35C180 33.8954 180.895 33 182 33C183.105 33 184 33.8954 184 35V78C184 79.1046 183.105 80 182 80C180.895 80 180 79.1046 180 78V35Z" fill="#515C46"/>
<path d="M186 39C186 37.8954 186.895 37 188 37C189.105 37 190 37.8954 190 39V78C190 79.1046 189.105 80 188 80C186.895 80 186 79.1046 186 78V39Z" fill="#515C46"/>
<path d="M192 44C192 42.8954 192.895 42 194 42C195.105 42 196 42.8954 196 44V78C196 79.1046 195.105 80 194 80C192.895 80 192 79.1046 192 78V44Z" fill="#515C46"/>
<path d="M198 50C198 48.8954 198.895 48 200 48C201.105 48 202 48.8954 202 50V78C202 79.1046 201.105 80 200 80C198.895 80 198 79.1046 198 78V50Z" fill="#515C46"/>
<path d="M204 55C204 53.8954 204.895 53 206 53C207.105 53 208 53.8954 208 55V78C208 79.1046 207.105 80 206 80C204.895 80 204 79.1046 204 78V55Z" fill="#515C46"/>
<path d="M210 62C210 60.8954 210.895 60 212 60C213.105 60 214 60.8954 214 62V78C214 79.1046 213.105 80 212 80C210.895 80 210 79.1046 210 78V62Z" fill="#515C46"/>
<path d="M216 59C216 57.8954 216.895 57 218 57C219.105 57 220 57.8954 220 59V78C220 79.1046 219.105 80 218 80C216.895 80 216 79.1046 216 78V59Z" fill="#515C46"/>
<path d="M222 62C222 60.8954 222.895 60 224 60C225.105 60 226 60.8954 226 62V78C226 79.1046 225.105 80 224 80C222.895 80 222 79.1046 222 78V62Z" fill="#515C46"/>
<path d="M228 59C228 57.8954 228.895 57 230 57C231.105 57 232 57.8954 232 59V78C232 79.1046 231.105 80 230 80C228.895 80 228 79.1046 228 78V59Z" fill="#515C46"/>
<path d="M234 52C234 50.8954 234.895 50 236 50C237.105 50 238 50.8954 238 52V78C238 79.1046 237.105 80 236 80C234.895 80 234 79.1046 234 78V52Z" fill="#515C46"/>
<path d="M240 44C240 42.8954 240.895 42 242 42C243.105 42 244 42.8954 244 44V78C244 79.1046 243.105 80 242 80C240.895 80 240 79.1046 240 78V44Z" fill="#515C46"/>
<path d="M246 39C246 37.8954 246.895 37 248 37C249.105 37 250 37.8954 250 39V78C250 79.1046 249.105 80 248 80C246.895 80 246 79.1046 246 78V39Z" fill="#515C46"/>
<path d="M252 42C252 40.8954 252.895 40 254 40C255.105 40 256 40.8954 256 42V78C256 79.1046 255.105 80 254 80C252.895 80 252 79.1046 252 78V42Z" fill="#515C46"/>
<path d="M258 50C258 48.8954 258.895 48 260 48C261.105 48 262 48.8954 262 50V78C262 79.1046 261.105 80 260 80C258.895 80 258 79.1046 258 78V50Z" fill="#515C46"/>
<path d="M264 44C264 42.8954 264.895 42 266 42C267.105 42 268 42.8954 268 44V78C268 79.1046 267.105 80 266 80C264.895 80 264 79.1046 264 78V44Z" fill="#515C46"/>
<path d="M270 42C270 40.8954 270.895 40 272 40C273.105 40 274 40.8954 274 42V78C274 79.1046 273.105 80 272 80C270.895 80 270 79.1046 270 78V42Z" fill="#515C46"/>
<path d="M276 39C276 37.8954 276.895 37 278 37C279.105 37 280 37.8954 280 39V78C280 79.1046 279.105 80 278 80C276.895 80 276 79.1046 276 78V39Z" fill="#515C46"/>
<path d="M282 31C282 29.8954 282.895 29 284 29C285.105 29 286 29.8954 286 31V78C286 79.1046 285.105 80 284 80C282.895 80 282 79.1046 282 78V31Z" fill="#515C46"/>
<path d="M288 35C288 33.8954 288.895 33 290 33C291.105 33 292 33.8954 292 35V78C292 79.1046 291.105 80 290 80C288.895 80 288 79.1046 288 78V35Z" fill="#515C46"/>
<path d="M294 39C294 37.8954 294.895 37 296 37C297.105 37 298 37.8954 298 39V78C298 79.1046 297.105 80 296 80C294.895 80 294 79.1046 294 78V39Z" fill="#515C46"/>
<path d="M300 44C300 42.8954 300.895 42 302 42C303.105 42 304 42.8954 304 44V78C304 79.1046 303.105 80 302 80C300.895 80 300 79.1046 300 78V44Z" fill="#515C46"/>
<path d="M306 50C306 48.8954 306.895 48 308 48C309.105 48 310 48.8954 310 50V78C310 79.1046 309.105 80 308 80C306.895 80 306 79.1046 306 78V50Z" fill="#515C46"/>
<path d="M312 55C312 53.8954 312.895 53 314 53C315.105 53 316 53.8954 316 55V78C316 79.1046 315.105 80 314 80C312.895 80 312 79.1046 312 78V55Z" fill="#515C46"/>
<path d="M318 62C318 60.8954 318.895 60 320 60C321.105 60 322 60.8954 322 62V78C322 79.1046 321.105 80 320 80C318.895 80 318 79.1046 318 78V62Z" fill="#515C46"/>
<path d="M324 59C324 57.8954 324.895 57 326 57C327.105 57 328 57.8954 328 59V78C328 79.1046 327.105 80 326 80C324.895 80 324 79.1046 324 78V59Z" fill="#515C46"/>
<path d="M330 62C330 60.8954 330.895 60 332 60C333.105 60 334 60.8954 334 62V78C334 79.1046 333.105 80 332 80C330.895 80 330 79.1046 330 78V62Z" fill="#515C46"/>
<path d="M336 59C336 57.8954 336.895 57 338 57C339.105 57 340 57.8954 340 59V78C340 79.1046 339.105 80 338 80C336.895 80 336 79.1046 336 78V59Z" fill="#515C46"/>
<path d="M342 52C342 50.8954 342.895 50 344 50C345.105 50 346 50.8954 346 52V78C346 79.1046 345.105 80 344 80C342.895 80 342 79.1046 342 78V52Z" fill="#515C46"/>
<path d="M348 44C348 42.8954 348.895 42 350 42C351.105 42 352 42.8954 352 44V78C352 79.1046 351.105 80 350 80C348.895 80 348 79.1046 348 78V44Z" fill="#515C46"/>
<path d="M354 39C354 37.8954 354.895 37 356 37C357.105 37 358 37.8954 358 39V78C358 79.1046 357.105 80 356 80C354.895 80 354 79.1046 354 78V39Z" fill="#515C46"/>
<path d="M360 42C360 40.8954 360.895 40 362 40C363.105 40 364 40.8954 364 42V78C364 79.1046 363.105 80 362 80C360.895 80 360 79.1046 360 78V42Z" fill="#515C46"/>
<path d="M366 50C366 48.8954 366.895 48 368 48C369.105 48 370 48.8954 370 50V78C370 79.1046 369.105 80 368 80C366.895 80 366 79.1046 366 78V50Z" fill="#515C46"/>
<path d="M372 44C372 42.8954 372.895 42 374 42C375.105 42 376 42.8954 376 44V78C376 79.1046 375.105 80 374 80C372.895 80 372 79.1046 372 78V44Z" fill="#515C46"/>
<path d="M378 42C378 40.8954 378.895 40 380 40C381.105 40 382 40.8954 382 42V78C382 79.1046 381.105 80 380 80C378.895 80 378 79.1046 378 78V42Z" fill="#515C46"/>
<path d="M384 39C384 37.8954 384.895 37 386 37C387.105 37 388 37.8954 388 39V78C388 79.1046 387.105 80 386 80C384.895 80 384 79.1046 384 78V39Z" fill="#515C46"/>
<path d="M390 31C390 29.8954 390.895 29 392 29C393.105 29 394 29.8954 394 31V78C394 79.1046 393.105 80 392 80C390.895 80 390 79.1046 390 78V31Z" fill="#515C46"/>
<path d="M396 35C396 33.8954 396.895 33 398 33C399.105 33 400 33.8954 400 35V78C400 79.1046 399.105 80 398 80C396.895 80 396 79.1046 396 78V35Z" fill="#515C46"/>
<path d="M402 39C402 37.8954 402.895 37 404 37C405.105 37 406 37.8954 406 39V78C406 79.1046 405.105 80 404 80C402.895 80 402 79.1046 402 78V39Z" fill="#515C46"/>
<path d="M408 44C408 42.8954 408.895 42 410 42C411.105 42 412 42.8954 412 44V78C412 79.1046 411.105 80 410 80C408.895 80 408 79.1046 408 78V44Z" fill="#515C46"/>
<path d="M414 50C414 48.8954 414.895 48 416 48C417.105 48 418 48.8954 418 50V78C418 79.1046 417.105 80 416 80C414.895 80 414 79.1046 414 78V50Z" fill="#515C46"/>
<path d="M420 55C420 53.8954 420.895 53 422 53C423.105 53 424 53.8954 424 55V78C424 79.1046 423.105 80 422 80C420.895 80 420 79.1046 420 78V55Z" fill="#515C46"/>
<path d="M426 62C426 60.8954 426.895 60 428 60C429.105 60 430 60.8954 430 62V78C430 79.1046 429.105 80 428 80C426.895 80 426 79.1046 426 78V62Z" fill="#515C46"/>
<path d="M432 59C432 57.8954 432.895 57 434 57C435.105 57 436 57.8954 436 59V78C436 79.1046 435.105 80 434 80C432.895 80 432 79.1046 432 78V59Z" fill="#515C46"/>
<path d="M438 62C438 60.8954 438.895 60 440 60C441.105 60 442 60.8954 442 62V78C442 79.1046 441.105 80 440 80C438.895 80 438 79.1046 438 78V62Z" fill="#515C46"/>
<path d="M444 59C444 57.8954 444.895 57 446 57C447.105 57 448 57.8954 448 59V78C448 79.1046 447.105 80 446 80C444.895 80 444 79.1046 444 78V59Z" fill="#515C46"/>
<path d="M450 52C450 50.8954 450.895 50 452 50C453.105 50 454 50.8954 454 52V78C454 79.1046 453.105 80 452 80C450.895 80 450 79.1046 450 78V52Z" fill="#515C46"/>
<path d="M456 44C456 42.8954 456.895 42 458 42C459.105 42 460 42.8954 460 44V78C460 79.1046 459.105 80 458 80C456.895 80 456 79.1046 456 78V44Z" fill="#515C46"/>
<path d="M462 39C462 37.8954 462.895 37 464 37C465.105 37 466 37.8954 466 39V78C466 79.1046 465.105 80 464 80C462.895 80 462 79.1046 462 78V39Z" fill="#515C46"/>
<path d="M468 42C468 40.8954 468.895 40 470 40C471.105 40 472 40.8954 472 42V78C472 79.1046 471.105 80 470 80C468.895 80 468 79.1046 468 78V42Z" fill="#515C46"/>
<path d="M474 50C474 48.8954 474.895 48 476 48C477.105 48 478 48.8954 478 50V78C478 79.1046 477.105 80 476 80C474.895 80 474 79.1046 474 78V50Z" fill="#515C46"/>
<path d="M480 44C480 42.8954 480.895 42 482 42C483.105 42 484 42.8954 484 44V78C484 79.1046 483.105 80 482 80C480.895 80 480 79.1046 480 78V44Z" fill="#515C46"/>
<path d="M486 42C486 40.8954 486.895 40 488 40C489.105 40 490 40.8954 490 42V78C490 79.1046 489.105 80 488 80C486.895 80 486 79.1046 486 78V42Z" fill="#515C46"/>
<path d="M492 39C492 37.8954 492.895 37 494 37C495.105 37 496 37.8954 496 39V78C496 79.1046 495.105 80 494 80C492.895 80 492 79.1046 492 78V39Z" fill="#515C46"/>
<path d="M498 31C498 29.8954 498.895 29 500 29C501.105 29 502 29.8954 502 31V78C502 79.1046 501.105 80 500 80C498.895 80 498 79.1046 498 78V31Z" fill="#515C46"/>
<path d="M504 35C504 33.8954 504.895 33 506 33C507.105 33 508 33.8954 508 35V78C508 79.1046 507.105 80 506 80C504.895 80 504 79.1046 504 78V35Z" fill="#515C46"/>
<path d="M510 39C510 37.8954 510.895 37 512 37C513.105 37 514 37.8954 514 39V78C514 79.1046 513.105 80 512 80C510.895 80 510 79.1046 510 78V39Z" fill="#515C46"/>
<path d="M516 44C516 42.8954 516.895 42 518 42C519.105 42 520 42.8954 520 44V78C520 79.1046 519.105 80 518 80C516.895 80 516 79.1046 516 78V44Z" fill="#515C46"/>
<path d="M522 50C522 48.8954 522.895 48 524 48C525.105 48 526 48.8954 526 50V78C526 79.1046 525.105 80 524 80C522.895 80 522 79.1046 522 78V50Z" fill="#515C46"/>
<path d="M528 55C528 53.8954 528.895 53 530 53C531.105 53 532 53.8954 532 55V78C532 79.1046 531.105 80 530 80C528.895 80 528 79.1046 528 78V55Z" fill="#515C46"/>
<path d="M534 62C534 60.8954 534.895 60 536 60C537.105 60 538 60.8954 538 62V78C538 79.1046 537.105 80 536 80C534.895 80 534 79.1046 534 78V62Z" fill="#515C46"/>
<path d="M540 59C540 57.8954 540.895 57 542 57C543.105 57 544 57.8954 544 59V78C544 79.1046 543.105 80 542 80C540.895 80 540 79.1046 540 78V59Z" fill="#515C46"/>
<path d="M546 62C546 60.8954 546.895 60 548 60C549.105 60 550 60.8954 550 62V78C550 79.1046 549.105 80 548 80C546.895 80 546 79.1046 546 78V62Z" fill="#515C46"/>
<path d="M552 59C552 57.8954 552.895 57 554 57C555.105 57 556 57.8954 556 59V78C556 79.1046 555.105 80 554 80C552.895 80 552 79.1046 552 78V59Z" fill="#515C46"/>
<path d="M558 52C558 50.8954 558.895 50 560 50C561.105 50 562 50.8954 562 52V78C562 79.1046 561.105 80 560 80C558.895 80 558 79.1046 558 78V52Z" fill="#515C46"/>
<path d="M564 44C564 42.8954 564.895 42 566 42C567.105 42 568 42.8954 568 44V78C568 79.1046 567.105 80 566 80C564.895 80 564 79.1046 564 78V44Z" fill="#515C46"/>
<path d="M570 39C570 37.8954 570.895 37 572 37C573.105 37 574 37.8954 574 39V78C574 79.1046 573.105 80 572 80C570.895 80 570 79.1046 570 78V39Z" fill="#515C46"/>
<path d="M576 42C576 40.8954 576.895 40 578 40C579.105 40 580 40.8954 580 42V78C580 79.1046 579.105 80 578 80C576.895 80 576 79.1046 576 78V42Z" fill="#515C46"/>
<path d="M582 50C582 48.8954 582.895 48 584 48C585.105 48 586 48.8954 586 50V78C586 79.1046 585.105 80 584 80C582.895 80 582 79.1046 582 78V50Z" fill="#515C46"/>
<path d="M588 44C588 42.8954 588.895 42 590 42C591.105 42 592 42.8954 592 44V78C592 79.1046 591.105 80 590 80C588.895 80 588 79.1046 588 78V44Z" fill="#515C46"/>
<path d="M594 42C594 40.8954 594.895 40 596 40C597.105 40 598 40.8954 598 42V78C598 79.1046 597.105 80 596 80C594.895 80 594 79.1046 594 78V42Z" fill="#515C46"/>
<path d="M600 39C600 37.8954 600.895 37 602 37C603.105 37 604 37.8954 604 39V78C604 79.1046 603.105 80 602 80C600.895 80 600 79.1046 600 78V39Z" fill="#515C46"/>
<path d="M606 31C606 29.8954 606.895 29 608 29C609.105 29 610 29.8954 610 31V78C610 79.1046 609.105 80 608 80C606.895 80 606 79.1046 606 78V31Z" fill="#515C46"/>
<path d="M612 35C612 33.8954 612.895 33 614 33C615.105 33 616 33.8954 616 35V78C616 79.1046 615.105 80 614 80C612.895 80 612 79.1046 612 78V35Z" fill="#515C46"/>
<path d="M618 39C618 37.8954 618.895 37 620 37C621.105 37 622 37.8954 622 39V78C622 79.1046 621.105 80 620 80C618.895 80 618 79.1046 618 78V39Z" fill="#515C46"/>
<path d="M624 44C624 42.8954 624.895 42 626 42C627.105 42 628 42.8954 628 44V78C628 79.1046 627.105 80 626 80C624.895 80 624 79.1046 624 78V44Z" fill="#515C46"/>
<path d="M630 50C630 48.8954 630.895 48 632 48C633.105 48 634 48.8954 634 50V78C634 79.1046 633.105 80 632 80C630.895 80 630 79.1046 630 78V50Z" fill="#515C46"/>
<path d="M636 55C636 53.8954 636.895 53 638 53C639.105 53 640 53.8954 640 55V78C640 79.1046 639.105 80 638 80C636.895 80 636 79.1046 636 78V55Z" fill="#515C46"/>
<path d="M642 62C642 60.8954 642.895 60 644 60C645.105 60 646 60.8954 646 62V78C646 79.1046 645.105 80 644 80C642.895 80 642 79.1046 642 78V62Z" fill="#515C46"/>
<path d="M648 59C648 57.8954 648.895 57 650 57C651.105 57 652 57.8954 652 59V78C652 79.1046 651.105 80 650 80C648.895 80 648 79.1046 648 78V59Z" fill="#515C46"/>
<path d="M654 62C654 60.8954 654.895 60 656 60C657.105 60 658 60.8954 658 62V78C658 79.1046 657.105 80 656 80C654.895 80 654 79.1046 654 78V62Z" fill="#515C46"/>
<path d="M660 59C660 57.8954 660.895 57 662 57C663.105 57 664 57.8954 664 59V78C664 79.1046 663.105 80 662 80C660.895 80 660 79.1046 660 78V59Z" fill="#515C46"/>
<path d="M666 52C666 50.8954 666.895 50 668 50C669.105 50 670 50.8954 670 52V78C670 79.1046 669.105 80 668 80C666.895 80 666 79.1046 666 78V52Z" fill="#515C46"/>
<path d="M672 44C672 42.8954 672.895 42 674 42C675.105 42 676 42.8954 676 44V78C676 79.1046 675.105 80 674 80C672.895 80 672 79.1046 672 78V44Z" fill="#515C46"/>
<path d="M678 39C678 37.8954 678.895 37 680 37C681.105 37 682 37.8954 682 39V78C682 79.1046 681.105 80 680 80C678.895 80 678 79.1046 678 78V39Z" fill="#515C46"/>
<path d="M684 42C684 40.8954 684.895 40 686 40C687.105 40 688 40.8954 688 42V78C688 79.1046 687.105 80 686 80C684.895 80 684 79.1046 684 78V42Z" fill="#515C46"/>
<path d="M690 50C690 48.8954 690.895 48 692 48C693.105 48 694 48.8954 694 50V78C694 79.1046 693.105 80 692 80C690.895 80 690 79.1046 690 78V50Z" fill="#515C46"/>
<path d="M696 44C696 42.8954 696.895 42 698 42C699.105 42 700 42.8954 700 44V78C700 79.1046 699.105 80 698 80C696.895 80 696 79.1046 696 78V44Z" fill="#515C46"/>
<path d="M702 42C702 40.8954 702.895 40 704 40C705.105 40 706 40.8954 706 42V78C706 79.1046 705.105 80 704 80C702.895 80 702 79.1046 702 78V42Z" fill="#515C46"/>
<path d="M708 39C708 37.8954 708.895 37 710 37C711.105 37 712 37.8954 712 39V78C712 79.1046 711.105 80 710 80C708.895 80 708 79.1046 708 78V39Z" fill="#515C46"/>
<path d="M714 31C714 29.8954 714.895 29 716 29C717.105 29 718 29.8954 718 31V78C718 79.1046 717.105 80 716 80C714.895 80 714 79.1046 714 78V31Z" fill="#515C46"/>
<path d="M720 35C720 33.8954 720.895 33 722 33C723.105 33 724 33.8954 724 35V78C724 79.1046 723.105 80 722 80C720.895 80 720 79.1046 720 78V35Z" fill="#515C46"/>
<path d="M726 39C726 37.8954 726.895 37 728 37C729.105 37 730 37.8954 730 39V78C730 79.1046 729.105 80 728 80C726.895 80 726 79.1046 726 78V39Z" fill="#515C46"/>
<path d="M732 44C732 42.8954 732.895 42 734 42C735.105 42 736 42.8954 736 44V78C736 79.1046 735.105 80 734 80C732.895 80 732 79.1046 732 78V44Z" fill="#515C46"/>
<path d="M738 50C738 48.8954 738.895 48 740 48C741.105 48 742 48.8954 742 50V78C742 79.1046 741.105 80 740 80C738.895 80 738 79.1046 738 78V50Z" fill="#515C46"/>
<path d="M744 55C744 53.8954 744.895 53 746 53C747.105 53 748 53.8954 748 55V78C748 79.1046 747.105 80 746 80C744.895 80 744 79.1046 744 78V55Z" fill="#515C46"/>
<path d="M750 62C750 60.8954 750.895 60 752 60C753.105 60 754 60.8954 754 62V78C754 79.1046 753.105 80 752 80C750.895 80 750 79.1046 750 78V62Z" fill="#515C46"/>
<path d="M756 59C756 57.8954 756.895 57 758 57C759.105 57 760 57.8954 760 59V78C760 79.1046 759.105 80 758 80C756.895 80 756 79.1046 756 78V59Z" fill="#515C46"/>
<path d="M762 62C762 60.8954 762.895 60 764 60C765.105 60 766 60.8954 766 62V78C766 79.1046 765.105 80 764 80C762.895 80 762 79.1046 762 78V62Z" fill="#515C46"/>
<path d="M768 59C768 57.8954 768.895 57 770 57C771.105 57 772 57.8954 772 59V78C772 79.1046 771.105 80 770 80C768.895 80 768 79.1046 768 78V59Z" fill="#515C46"/>
<path d="M774 52C774 50.8954 774.895 50 776 50C777.105 50 778 50.8954 778 52V78C778 79.1046 777.105 80 776 80C774.895 80 774 79.1046 774 78V52Z" fill="#515C46"/>
<path d="M780 44C780 42.8954 780.895 42 782 42C783.105 42 784 42.8954 784 44V78C784 79.1046 783.105 80 782 80C780.895 80 780 79.1046 780 78V44Z" fill="#515C46"/>
<path d="M786 39C786 37.8954 786.895 37 788 37C789.105 37 790 37.8954 790 39V78C790 79.1046 789.105 80 788 80C786.895 80 786 79.1046 786 78V39Z" fill="#515C46"/>
<path d="M792 42C792 40.8954 792.895 40 794 40C795.105 40 796 40.8954 796 42V78C796 79.1046 795.105 80 794 80C792.895 80 792 79.1046 792 78V42Z" fill="#515C46"/>
<path d="M798 50C798 48.8954 798.895 48 800 48C801.105 48 802 48.8954 802 50V78C802 79.1046 801.105 80 800 80C798.895 80 798 79.1046 798 78V50Z" fill="#515C46"/>
<path d="M804 44C804 42.8954 804.895 42 806 42C807.105 42 808 42.8954 808 44V78C808 79.1046 807.105 80 806 80C804.895 80 804 79.1046 804 78V44Z" fill="#515C46"/>
<path d="M810 42C810 40.8954 810.895 40 812 40C813.105 40 814 40.8954 814 42V78C814 79.1046 813.105 80 812 80C810.895 80 810 79.1046 810 78V42Z" fill="#515C46"/>
<path d="M816 39C816 37.8954 816.895 37 818 37C819.105 37 820 37.8954 820 39V78C820 79.1046 819.105 80 818 80C816.895 80 816 79.1046 816 78V39Z" fill="#515C46"/>
<path d="M822 31C822 29.8954 822.895 29 824 29C825.105 29 826 29.8954 826 31V78C826 79.1046 825.105 80 824 80C822.895 80 822 79.1046 822 78V31Z" fill="#515C46"/>
<path d="M828 35C828 33.8954 828.895 33 830 33C831.105 33 832 33.8954 832 35V78C832 79.1046 831.105 80 830 80C828.895 80 828 79.1046 828 78V35Z" fill="#515C46"/>
<path d="M834 39C834 37.8954 834.895 37 836 37C837.105 37 838 37.8954 838 39V78C838 79.1046 837.105 80 836 80C834.895 80 834 79.1046 834 78V39Z" fill="#515C46"/>
<path d="M840 44C840 42.8954 840.895 42 842 42C843.105 42 844 42.8954 844 44V78C844 79.1046 843.105 80 842 80C840.895 80 840 79.1046 840 78V44Z" fill="#515C46"/>
<path d="M846 50C846 48.8954 846.895 48 848 48C849.105 48 850 48.8954 850 50V78C850 79.1046 849.105 80 848 80C846.895 80 846 79.1046 846 78V50Z" fill="#515C46"/>
<path d="M852 55C852 53.8954 852.895 53 854 53C855.105 53 856 53.8954 856 55V78C856 79.1046 855.105 80 854 80C852.895 80 852 79.1046 852 78V55Z" fill="#515C46"/>
<path d="M858 62C858 60.8954 858.895 60 860 60C861.105 60 862 60.8954 862 62V78C862 79.1046 861.105 80 860 80C858.895 80 858 79.1046 858 78V62Z" fill="#515C46"/>
<path d="M864 59C864 57.8954 864.895 57 866 57C867.105 57 868 57.8954 868 59V78C868 79.1046 867.105 80 866 80C864.895 80 864 79.1046 864 78V59Z" fill="#515C46"/>
<path d="M870 62C870 60.8954 870.895 60 872 60C873.105 60 874 60.8954 874 62V78C874 79.1046 873.105 80 872 80C870.895 80 870 79.1046 870 78V62Z" fill="#515C46"/>
<path d="M876 59C876 57.8954 876.895 57 878 57C879.105 57 880 57.8954 880 59V78C880 79.1046 879.105 80 878 80C876.895 80 876 79.1046 876 78V59Z" fill="#515C46"/>
<path d="M882 52C882 50.8954 882.895 50 884 50C885.105 50 886 50.8954 886 52V78C886 79.1046 885.105 80 884 80C882.895 80 882 79.1046 882 78V52Z" fill="#515C46"/>
<path d="M888 44C888 42.8954 888.895 42 890 42C891.105 42 892 42.8954 892 44V78C892 79.1046 891.105 80 890 80C888.895 80 888 79.1046 888 78V44Z" fill="#515C46"/>
<path d="M894 39C894 37.8954 894.895 37 896 37C897.105 37 898 37.8954 898 39V78C898 79.1046 897.105 80 896 80C894.895 80 894 79.1046 894 78V39Z" fill="#515C46"/>
<path d="M900 42C900 40.8954 900.895 40 902 40C903.105 40 904 40.8954 904 42V78C904 79.1046 903.105 80 902 80C900.895 80 900 79.1046 900 78V42Z" fill="#515C46"/>
<path d="M906 50C906 48.8954 906.895 48 908 48C909.105 48 910 48.8954 910 50V78C910 79.1046 909.105 80 908 80C906.895 80 906 79.1046 906 78V50Z" fill="#515C46"/>
<path d="M912 44C912 42.8954 912.895 42 914 42C915.105 42 916 42.8954 916 44V78C916 79.1046 915.105 80 914 80C912.895 80 912 79.1046 912 78V44Z" fill="#515C46"/>
<path d="M918 42C918 40.8954 918.895 40 920 40C921.105 40 922 40.8954 922 42V78C922 79.1046 921.105 80 920 80C918.895 80 918 79.1046 918 78V42Z" fill="#515C46"/>
<path d="M924 39C924 37.8954 924.895 37 926 37C927.105 37 928 37.8954 928 39V78C928 79.1046 927.105 80 926 80C924.895 80 924 79.1046 924 78V39Z" fill="#515C46"/>
<path d="M930 31C930 29.8954 930.895 29 932 29C933.105 29 934 29.8954 934 31V78C934 79.1046 933.105 80 932 80C930.895 80 930 79.1046 930 78V31Z" fill="#515C46"/>
<path d="M936 35C936 33.8954 936.895 33 938 33C939.105 33 940 33.8954 940 35V78C940 79.1046 939.105 80 938 80C936.895 80 936 79.1046 936 78V35Z" fill="#515C46"/>
<path d="M942 39C942 37.8954 942.895 37 944 37C945.105 37 946 37.8954 946 39V78C946 79.1046 945.105 80 944 80C942.895 80 942 79.1046 942 78V39Z" fill="#515C46"/>
<path d="M948 44C948 42.8954 948.895 42 950 42C951.105 42 952 42.8954 952 44V78C952 79.1046 951.105 80 950 80C948.895 80 948 79.1046 948 78V44Z" fill="#515C46"/>
<path d="M954 50C954 48.8954 954.895 48 956 48C957.105 48 958 48.8954 958 50V78C958 79.1046 957.105 80 956 80C954.895 80 954 79.1046 954 78V50Z" fill="#515C46"/>
<path d="M960 55C960 53.8954 960.895 53 962 53C963.105 53 964 53.8954 964 55V78C964 79.1046 963.105 80 962 80C960.895 80 960 79.1046 960 78V55Z" fill="#515C46"/>
<path d="M966 62C966 60.8954 966.895 60 968 60C969.105 60 970 60.8954 970 62V78C970 79.1046 969.105 80 968 80C966.895 80 966 79.1046 966 78V62Z" fill="#515C46"/>
<path d="M972 60C972 58.8954 972.895 58 974 58C975.105 58 976 58.8954 976 60V78C976 79.1046 975.105 80 974 80C972.895 80 972 79.1046 972 78V60Z" fill="#515C46"/>
<path d="M977 57C977 55.8954 977.895 55 979 55C980.105 55 981 55.8954 981 57V78C981 79.1046 980.105 80 979 80C977.895 80 977 79.1046 977 78V57Z" fill="#515C46"/>
<path d="M982 50C982 48.8954 982.895 48 984 48C985.105 48 986 48.8954 986 50V78C986 79.1046 985.105 80 984 80C982.895 80 982 79.1046 982 78V50Z" fill="#515C46"/>
</svg>
