<svg width="60" height="60" viewBox="0 0 60 60" fill="none" xmlns="http://www.w3.org/2000/svg">
<path d="M22.5 12.4999C22.5 11.8368 22.2366 11.2009 21.7678 10.7321C21.2989 10.2633 20.663 9.99986 20 9.99986H15C14.337 9.99986 13.7011 10.2633 13.2322 10.7321C12.7634 11.2009 12.5 11.8368 12.5 12.4999V47.4999C12.5 48.1629 12.7634 48.7988 13.2322 49.2676C13.7011 49.7365 14.337 49.9999 15 49.9999H20C20.663 49.9999 21.2989 49.7365 21.7678 49.2676C22.2366 48.7988 22.5 48.1629 22.5 47.4999M22.5 12.4999V47.4999M22.5 12.4999C22.5 11.8368 22.7634 11.2009 23.2322 10.7321C23.7011 10.2633 24.337 9.99986 25 9.99986H30C30.663 9.99986 31.2989 10.2633 31.7678 10.7321C32.2366 11.2009 32.5 11.8368 32.5 12.4999V47.4999C32.5 48.1629 32.2366 48.7988 31.7678 49.2676C31.2989 49.7365 30.663 49.9999 30 49.9999H25C24.337 49.9999 23.7011 49.7365 23.2322 49.2676C22.7634 48.7988 22.5 48.1629 22.5 47.4999M12.5 19.9999H22.5M22.5 39.9999H32.5M35 22.4999L45 19.9999M40 39.9999L49.8075 37.5499M34.5075 11.3999L39.9675 10.0749C41.3725 9.73736 42.8 10.5499 43.1725 11.9049L52.41 45.4499C52.573 46.064 52.5008 46.7168 52.2077 47.2805C51.9145 47.8442 51.4214 48.2782 50.825 48.4974L50.4925 48.5999L45.0325 49.9249C43.6275 50.2624 42.2 49.4499 41.8275 48.0949L32.59 14.5499C32.4271 13.9357 32.4992 13.2829 32.7924 12.7192C33.0856 12.1555 33.5787 11.7216 34.175 11.5024L34.5075 11.3999Z" stroke="#FFE9C5" stroke-width="2" stroke-linecap="round" stroke-linejoin="round"/>
</svg>
