<svg width="69" height="59" viewBox="0 0 69 59" fill="none" xmlns="http://www.w3.org/2000/svg">
<path fill-rule="evenodd" clip-rule="evenodd" d="M34.5049 0L66.8686 25.5503C68.3361 26.7088 68.6005 28.8556 67.4591 30.3452C66.3177 31.8348 64.2027 32.1032 62.7352 30.9446L58.0693 27.261V55.5831C58.0693 57.4702 56.5621 59 54.703 59H14.3071C12.4479 59 10.9408 57.4702 10.9408 55.5831V27.2609L6.27481 30.9446C4.80728 32.1032 2.6923 31.8348 1.55088 30.3452C0.409458 28.8556 0.673829 26.7088 2.14137 25.5503L34.5049 0ZM31.1387 52.1661H37.8714V38.4983H31.1387V52.1661ZM44.604 52.1661V31.6644H24.4061V52.1661H17.6734V23.8815L34.505 9.77439L51.3366 23.8815V52.1661H44.604Z" fill="#7D4230"/>
</svg>
