<svg width="65" height="64" viewBox="0 0 65 64" fill="none" xmlns="http://www.w3.org/2000/svg">
<path d="M32.505 62C32.505 62 23.3766 60.6957 17.5776 60.6957C14.8456 60.6957 11.4083 60.9852 8.5366 61.2914C5.50621 61.6145 2.802 59.2685 2.802 56.221V15.6264C2.802 13.6801 3.93023 11.8928 5.79065 11.3209C6.83384 11.0003 8.05506 10.695 9.29364 10.5381M32.505 62C32.505 62 41.3298 60.6957 47.1288 60.6957C49.9203 60.6957 53.5183 60.9979 56.4996 61.3113C59.5211 61.629 62.2079 59.2862 62.2079 56.248V15.4792C62.2079 13.6093 61.1622 11.8774 59.3722 11.3362C58.481 11.0667 57.4307 10.8146 56.2977 10.6711M32.505 62V54.1632M32.505 54.1632C32.505 54.1632 24.7679 52.8696 20.1287 52.8696C18.5434 52.8696 16.7408 53.021 15.0546 53.2203C11.9081 53.5922 9.01079 51.1952 9.03283 48.0269L9.29364 10.5381M32.505 54.1632C32.505 54.1632 39.838 52.8696 44.4772 52.8696C46.1663 52.8696 48.1556 53.0591 50.0025 53.3C53.132 53.7084 56.0386 51.3535 56.0587 48.1975L56.2977 10.6711M32.505 54.1632V3.30434M9.29364 10.5381V7.46388C9.29364 5.05339 11.0137 2.9838 13.401 2.65025C15.7303 2.32481 18.6248 2 20.8993 2C25.4573 2 32.505 3.30434 32.505 3.30434M56.2977 10.6711V7.48256C56.2977 5.06376 54.5668 2.99012 52.1704 2.66165C49.7686 2.33243 46.7594 2 44.4013 2C39.7304 2 32.505 3.30434 32.505 3.30434" stroke="#7D4230" stroke-width="3.75" stroke-linecap="round" stroke-linejoin="round"/>
</svg>
