<svg width="60" height="60" viewBox="0 0 60 60" fill="none" xmlns="http://www.w3.org/2000/svg">
<path d="M22.5 12.5C22.5 11.8369 22.2366 11.2011 21.7678 10.7322C21.2989 10.2634 20.663 9.99998 20 9.99998H15C14.337 9.99998 13.7011 10.2634 13.2322 10.7322C12.7634 11.2011 12.5 11.8369 12.5 12.5V47.5C12.5 48.163 12.7634 48.7989 13.2322 49.2678C13.7011 49.7366 14.337 50 15 50H20C20.663 50 21.2989 49.7366 21.7678 49.2678C22.2366 48.7989 22.5 48.163 22.5 47.5M22.5 12.5V47.5M22.5 12.5C22.5 11.8369 22.7634 11.2011 23.2322 10.7322C23.7011 10.2634 24.337 9.99998 25 9.99998H30C30.663 9.99998 31.2989 10.2634 31.7678 10.7322C32.2366 11.2011 32.5 11.8369 32.5 12.5V47.5C32.5 48.163 32.2366 48.7989 31.7678 49.2678C31.2989 49.7366 30.663 50 30 50H25C24.337 50 23.7011 49.7366 23.2322 49.2678C22.7634 48.7989 22.5 48.163 22.5 47.5M12.5 20H22.5M22.5 40H32.5M35 22.5L45 20M40 40L49.8075 37.55M34.5075 11.4L39.9675 10.075C41.3725 9.73748 42.8 10.55 43.1725 11.905L52.41 45.45C52.573 46.0641 52.5008 46.717 52.2077 47.2807C51.9145 47.8444 51.4214 48.2783 50.825 48.4975L50.4925 48.6L45.0325 49.925C43.6275 50.2625 42.2 49.45 41.8275 48.095L32.59 14.55C32.4271 13.9359 32.4992 13.283 32.7924 12.7193C33.0856 12.1556 33.5787 11.7217 34.175 11.5025L34.5075 11.4Z" stroke="#7D4230" stroke-width="2" stroke-linecap="round" stroke-linejoin="round"/>
</svg>
