<svg width="32" height="32" viewBox="0 0 32 32" fill="none" xmlns="http://www.w3.org/2000/svg">
<path d="M14.4 0.5H17.6C20.1285 0.5 21.9948 0.500389 23.4705 0.620957C24.9403 0.741049 25.9785 0.977874 26.8589 1.42644C28.4583 2.24137 29.7586 3.5417 30.5736 5.14108C31.0221 6.02145 31.259 7.05969 31.379 8.52953C31.4996 10.0052 31.5 11.8715 31.5 14.4V17.6C31.5 20.1285 31.4996 21.9948 31.379 23.4705C31.259 24.9403 31.0221 25.9785 30.5736 26.8589C29.7586 28.4583 28.4583 29.7586 26.8589 30.5736C25.9785 31.0221 24.9403 31.259 23.4705 31.379C21.9948 31.4996 20.1285 31.5 17.6 31.5H14.4C11.8715 31.5 10.0052 31.4996 8.52953 31.379C7.05969 31.259 6.02145 31.0221 5.14108 30.5736C3.5417 29.7586 2.24137 28.4583 1.42644 26.8589C0.977874 25.9785 0.741049 24.9403 0.620957 23.4705C0.500389 21.9948 0.5 20.1285 0.5 17.6V14.4C0.5 11.8715 0.500389 10.0052 0.620957 8.52953C0.741049 7.05969 0.977874 6.02145 1.42644 5.14108C2.24137 3.5417 3.5417 2.24137 5.14108 1.42644C6.02145 0.977874 7.05969 0.741049 8.52953 0.620957C10.0052 0.500389 11.8715 0.5 14.4 0.5Z" fill="#E29675" stroke="#FFE9C5"/>
<mask id="path-2-inside-1_201_239" fill="white">
<path fill-rule="evenodd" clip-rule="evenodd" d="M23.422 8.59601C24.0478 9.22181 24.0478 10.2364 23.422 10.8622L10.8734 23.4109C10.2476 24.0367 9.23293 24.0367 8.60712 23.4109V23.4109C7.98132 22.7851 7.98132 21.7705 8.60712 21.1447L21.1558 8.59601C21.7816 7.9702 22.7962 7.97021 23.422 8.59601V8.59601Z"/>
<path fill-rule="evenodd" clip-rule="evenodd" d="M23.422 23.4109C22.7962 24.0367 21.7816 24.0367 21.1558 23.4109L8.60712 10.8622C7.98131 10.2364 7.98131 9.22181 8.60712 8.59601V8.59601C9.23292 7.97021 10.2476 7.97021 10.8734 8.59601L23.422 21.1447C24.0478 21.7705 24.0478 22.7851 23.422 23.4109V23.4109Z"/>
</mask>
<path fill-rule="evenodd" clip-rule="evenodd" d="M23.422 8.59601C24.0478 9.22181 24.0478 10.2364 23.422 10.8622L10.8734 23.4109C10.2476 24.0367 9.23293 24.0367 8.60712 23.4109V23.4109C7.98132 22.7851 7.98132 21.7705 8.60712 21.1447L21.1558 8.59601C21.7816 7.9702 22.7962 7.97021 23.422 8.59601V8.59601Z" fill="white"/>
<path fill-rule="evenodd" clip-rule="evenodd" d="M23.422 23.4109C22.7962 24.0367 21.7816 24.0367 21.1558 23.4109L8.60712 10.8622C7.98131 10.2364 7.98131 9.22181 8.60712 8.59601V8.59601C9.23292 7.97021 10.2476 7.97021 10.8734 8.59601L23.422 21.1447C24.0478 21.7705 24.0478 22.7851 23.422 23.4109V23.4109Z" fill="white"/>
<path d="M21.1558 23.4109L17.8453 26.7214L21.1558 23.4109ZM8.60712 21.1447L5.29663 17.8342L8.60712 21.1447ZM10.8734 23.4109L7.56286 20.1004L10.8734 23.4109ZM14.1839 26.7214L26.7325 14.1727L20.1115 7.55175L7.56286 20.1004L14.1839 26.7214ZM17.8453 5.28551L5.29663 17.8342L11.9176 24.4552L24.4663 11.9065L17.8453 5.28551ZM5.29662 14.1727L17.8453 26.7214L24.4663 20.1004L11.9176 7.55175L5.29662 14.1727ZM26.7325 17.8342L14.1838 5.28551L7.56286 11.9065L20.1115 24.4552L26.7325 17.8342ZM20.1115 24.4552C18.909 23.2526 18.909 21.3029 20.1115 20.1004L26.7325 26.7214C29.1867 24.2673 29.1867 20.2883 26.7325 17.8342L20.1115 24.4552ZM11.9176 11.9065C10.7151 13.109 8.76539 13.109 7.56286 11.9065L14.1838 5.28551C11.7297 2.83137 7.75076 2.83137 5.29662 5.28551L11.9176 11.9065ZM17.8453 26.7214C20.2994 29.1755 24.2784 29.1755 26.7325 26.7214L20.1115 20.1004C21.3141 18.8979 23.2637 18.8979 24.4663 20.1004L17.8453 26.7214ZM11.9176 7.55175C13.1201 8.75428 13.1201 10.704 11.9176 11.9065L5.29662 5.28551C2.84248 7.73965 2.84248 11.7186 5.29662 14.1727L11.9176 7.55175ZM24.4663 11.9065C23.2638 13.109 21.3141 13.109 20.1115 11.9065L26.7325 5.28551C24.2784 2.83137 20.2994 2.83137 17.8453 5.28551L24.4663 11.9065ZM11.9176 20.1004C13.1201 21.3029 13.1201 23.2526 11.9176 24.4552L5.29663 17.8342C2.84249 20.2883 2.84249 24.2673 5.29663 26.7214L11.9176 20.1004ZM26.7325 14.1727C29.1867 11.7186 29.1867 7.73966 26.7325 5.28551L20.1115 11.9065C18.909 10.704 18.909 8.75428 20.1115 7.55175L26.7325 14.1727ZM7.56286 20.1004C8.7654 18.8979 10.7151 18.8979 11.9176 20.1004L5.29663 26.7214C7.75076 29.1755 11.7297 29.1755 14.1839 26.7214L7.56286 20.1004Z" fill="#FFE9C5" mask="url(#path-2-inside-1_201_239)"/>
</svg>
