<svg width="81" height="80" viewBox="0 0 81 80" fill="none" xmlns="http://www.w3.org/2000/svg">
<g clip-path="url(#clip0_11_211)">
<path d="M57.0066 36.6667C57.0066 45.8667 49.6139 53.3334 40.505 53.3334C31.396 53.3334 24.0033 45.8667 24.0033 36.6667H17.4026C17.4026 48.4334 26.0165 58.1 37.2046 59.7334V70H43.8053V59.7334C54.9934 58.1 63.6073 48.4334 63.6073 36.6667H57.0066V36.6667Z" fill="#7D4230"/>
<path d="M40.505 46.6667C45.9835 46.6667 50.406 42.2 50.406 36.6667V16.6667C50.406 11.1334 45.9835 6.66669 40.505 6.66669C35.0264 6.66669 30.604 11.1334 30.604 16.6667V36.6667C30.604 42.2 35.0264 46.6667 40.505 46.6667ZM37.2047 16.6667C37.2047 14.8334 38.6898 13.3334 40.505 13.3334C42.3202 13.3334 43.8053 14.8334 43.8053 16.6667V36.6667C43.8053 38.5 42.3202 40 40.505 40C38.6898 40 37.2047 38.5 37.2047 36.6667V16.6667Z" fill="#7D4230"/>
<path d="M40.505 46.6667C45.9835 46.6667 50.406 42.2 50.406 36.6667L43.8053 36.6667C43.8053 38.3334 42.5032 40 40.505 40C38.5067 40 37.2047 38.3334 37.2047 36.6667L30.604 36.6667C30.604 42.2 35.0264 46.6667 40.505 46.6667Z" fill="#7D4230"/>
</g>
<defs>
<clipPath id="clip0_11_211">
<rect width="79.2079" height="80" fill="white" transform="translate(0.901001)"/>
</clipPath>
</defs>
</svg>
