<svg width="181" height="211" viewBox="0 0 181 211" fill="none" xmlns="http://www.w3.org/2000/svg">
<g filter="url(#filter0_ddddd_196_230)">
<path d="M14 26.4C14 21.3595 14 18.8393 14.9809 16.9141C15.8438 15.2206 17.2206 13.8438 18.9141 12.9809C20.8393 12 23.3595 12 28.4 12H39.6C44.6405 12 47.1607 12 49.0859 12.9809C50.7794 13.8438 52.1562 15.2206 53.0191 16.9141C54 18.8393 54 21.3595 54 26.4V37.6C54 42.6405 54 45.1607 53.0191 47.0859C52.1562 48.7794 50.7794 50.1562 49.0859 51.0191C47.1607 52 44.6405 52 39.6 52H28.4C23.3595 52 20.8393 52 18.9141 51.0191C17.2206 50.1562 15.8438 48.7794 14.9809 47.0859C14 45.1607 14 42.6405 14 37.6V26.4Z" fill="#7D4230"/>
<path d="M14 26.4C14 21.3595 14 18.8393 14.9809 16.9141C15.8438 15.2206 17.2206 13.8438 18.9141 12.9809C20.8393 12 23.3595 12 28.4 12H39.6C44.6405 12 47.1607 12 49.0859 12.9809C50.7794 13.8438 52.1562 15.2206 53.0191 16.9141C54 18.8393 54 21.3595 54 26.4V37.6C54 42.6405 54 45.1607 53.0191 47.0859C52.1562 48.7794 50.7794 50.1562 49.0859 51.0191C47.1607 52 44.6405 52 39.6 52H28.4C23.3595 52 20.8393 52 18.9141 51.0191C17.2206 50.1562 15.8438 48.7794 14.9809 47.0859C14 45.1607 14 42.6405 14 37.6V26.4Z" fill="#7D4230"/>
</g>
<mask id="path-2-inside-1_196_230" fill="white">
<path fill-rule="evenodd" clip-rule="evenodd" d="M34.0182 18.9097C35.1245 18.9097 36.0213 19.8066 36.0213 20.9128L36.0213 43.0959C36.0213 44.2022 35.1245 45.099 34.0182 45.099V45.099C32.9119 45.099 32.0151 44.2022 32.0151 43.0959L32.0151 20.9128C32.0151 19.8066 32.9119 18.9097 34.0182 18.9097V18.9097Z"/>
<path fill-rule="evenodd" clip-rule="evenodd" d="M47.1129 32.0044C47.1129 33.1107 46.216 34.0075 45.1098 34.0075L22.9267 34.0075C21.8204 34.0075 20.9236 33.1107 20.9236 32.0044V32.0044C20.9236 30.8981 21.8204 30.0013 22.9267 30.0013L45.1098 30.0013C46.216 30.0013 47.1129 30.8981 47.1129 32.0044V32.0044Z"/>
</mask>
<path fill-rule="evenodd" clip-rule="evenodd" d="M34.0182 18.9097C35.1245 18.9097 36.0213 19.8066 36.0213 20.9128L36.0213 43.0959C36.0213 44.2022 35.1245 45.099 34.0182 45.099V45.099C32.9119 45.099 32.0151 44.2022 32.0151 43.0959L32.0151 20.9128C32.0151 19.8066 32.9119 18.9097 34.0182 18.9097V18.9097Z" fill="white"/>
<path fill-rule="evenodd" clip-rule="evenodd" d="M47.1129 32.0044C47.1129 33.1107 46.216 34.0075 45.1098 34.0075L22.9267 34.0075C21.8204 34.0075 20.9236 33.1107 20.9236 32.0044V32.0044C20.9236 30.8981 21.8204 30.0013 22.9267 30.0013L45.1098 30.0013C46.216 30.0013 47.1129 30.8981 47.1129 32.0044V32.0044Z" fill="white"/>
<path d="M45.1098 30.0013L45.1098 25.3196L45.1098 30.0013ZM45.1098 34.0075L45.1098 38.6892L45.1098 34.0075ZM36.0213 20.9128L31.3396 20.9128L36.0213 20.9128ZM36.0213 43.0959L40.703 43.0959L36.0213 43.0959ZM40.703 43.0959L40.703 20.9128L31.3396 20.9128L31.3396 43.0959L40.703 43.0959ZM27.3334 20.9128L27.3334 43.0959L36.6969 43.0959L36.6969 20.9128L27.3334 20.9128ZM22.9267 38.6892L45.1098 38.6892L45.1098 29.3257L22.9267 29.3257L22.9267 38.6892ZM45.1098 25.3196L22.9267 25.3196L22.9267 34.6831L45.1098 34.6831L45.1098 25.3196ZM45.1098 34.6831C43.6304 34.6831 42.4311 33.4838 42.4311 32.0044L51.7946 32.0044C51.7946 28.3125 48.8017 25.3196 45.1098 25.3196L45.1098 34.6831ZM25.6053 32.0044C25.6053 33.4838 24.406 34.6831 22.9267 34.6831L22.9267 25.3196C19.2347 25.3196 16.2418 28.3125 16.2418 32.0044L25.6053 32.0044ZM45.1098 38.6892C48.8017 38.6892 51.7946 35.6963 51.7946 32.0044L42.4311 32.0044C42.4311 30.525 43.6304 29.3257 45.1098 29.3257L45.1098 38.6892ZM22.9267 29.3257C24.406 29.3257 25.6053 30.525 25.6053 32.0044L16.2418 32.0044C16.2418 35.6963 19.2347 38.6892 22.9267 38.6892L22.9267 29.3257ZM36.6969 20.9128C36.6969 22.3922 35.4976 23.5915 34.0182 23.5915L34.0182 14.228C30.3263 14.228 27.3334 17.2209 27.3334 20.9128L36.6969 20.9128ZM34.0182 40.4173C35.4976 40.4173 36.6969 41.6166 36.6969 43.0959L27.3334 43.0959C27.3334 46.7879 30.3263 49.7808 34.0182 49.7808L34.0182 40.4173ZM40.703 20.9128C40.703 17.2209 37.7102 14.228 34.0182 14.228V23.5915C32.5388 23.5915 31.3396 22.3922 31.3396 20.9128L40.703 20.9128ZM31.3396 43.0959C31.3396 41.6166 32.5388 40.4173 34.0182 40.4173L34.0182 49.7808C37.7101 49.7808 40.703 46.7879 40.703 43.0959L31.3396 43.0959Z" fill="#FFE9C5" mask="url(#path-2-inside-1_196_230)"/>
<defs>
<filter id="filter0_ddddd_196_230" x="0.428768" y="0.516649" width="179.888" height="210.162" filterUnits="userSpaceOnUse" color-interpolation-filters="sRGB">
<feFlood flood-opacity="0" result="BackgroundImageFix"/>
<feColorMatrix in="SourceAlpha" type="matrix" values="0 0 0 0 0 0 0 0 0 0 0 0 0 0 0 0 0 0 127 0" result="hardAlpha"/>
<feOffset/>
<feColorMatrix type="matrix" values="0 0 0 0 0 0 0 0 0 0 0 0 0 0 0 0 0 0 0.15 0"/>
<feBlend mode="normal" in2="BackgroundImageFix" result="effect1_dropShadow_196_230"/>
<feColorMatrix in="SourceAlpha" type="matrix" values="0 0 0 0 0 0 0 0 0 0 0 0 0 0 0 0 0 0 127 0" result="hardAlpha"/>
<feOffset dx="4.17576" dy="6.26365"/>
<feGaussianBlur stdDeviation="8.8735"/>
<feColorMatrix type="matrix" values="0 0 0 0 0 0 0 0 0 0 0 0 0 0 0 0 0 0 0.15 0"/>
<feBlend mode="normal" in2="effect1_dropShadow_196_230" result="effect2_dropShadow_196_230"/>
<feColorMatrix in="SourceAlpha" type="matrix" values="0 0 0 0 0 0 0 0 0 0 0 0 0 0 0 0 0 0 127 0" result="hardAlpha"/>
<feOffset dx="18.7909" dy="27.1425"/>
<feGaussianBlur stdDeviation="16.1811"/>
<feColorMatrix type="matrix" values="0 0 0 0 0 0 0 0 0 0 0 0 0 0 0 0 0 0 0.13 0"/>
<feBlend mode="normal" in2="effect2_dropShadow_196_230" result="effect3_dropShadow_196_230"/>
<feColorMatrix in="SourceAlpha" type="matrix" values="0 0 0 0 0 0 0 0 0 0 0 0 0 0 0 0 0 0 127 0" result="hardAlpha"/>
<feOffset dx="41.7576" dy="59.5046"/>
<feGaussianBlur stdDeviation="21.9228"/>
<feColorMatrix type="matrix" values="0 0 0 0 0 0 0 0 0 0 0 0 0 0 0 0 0 0 0.08 0"/>
<feBlend mode="normal" in2="effect3_dropShadow_196_230" result="effect4_dropShadow_196_230"/>
<feColorMatrix in="SourceAlpha" type="matrix" values="0 0 0 0 0 0 0 0 0 0 0 0 0 0 0 0 0 0 127 0" result="hardAlpha"/>
<feOffset dx="74.1198" dy="106.482"/>
<feGaussianBlur stdDeviation="26.0985"/>
<feColorMatrix type="matrix" values="0 0 0 0 0 0 0 0 0 0 0 0 0 0 0 0 0 0 0.02 0"/>
<feBlend mode="normal" in2="effect4_dropShadow_196_230" result="effect5_dropShadow_196_230"/>
<feBlend mode="normal" in="SourceGraphic" in2="effect5_dropShadow_196_230" result="shape"/>
</filter>
</defs>
</svg>
