<svg width="60" height="60" viewBox="0 0 60 60" fill="none" xmlns="http://www.w3.org/2000/svg">
<path d="M22.5 12.5001C22.5 11.8371 22.2366 11.2012 21.7678 10.7323C21.2989 10.2635 20.663 10.0001 20 10.0001H15C14.337 10.0001 13.7011 10.2635 13.2322 10.7323C12.7634 11.2012 12.5 11.8371 12.5 12.5001V47.5001C12.5 48.1631 12.7634 48.799 13.2322 49.2679C13.7011 49.7367 14.337 50.0001 15 50.0001H20C20.663 50.0001 21.2989 49.7367 21.7678 49.2679C22.2366 48.799 22.5 48.1631 22.5 47.5001M22.5 12.5001V47.5001M22.5 12.5001C22.5 11.8371 22.7634 11.2012 23.2322 10.7323C23.7011 10.2635 24.337 10.0001 25 10.0001H30C30.663 10.0001 31.2989 10.2635 31.7678 10.7323C32.2366 11.2012 32.5 11.8371 32.5 12.5001V47.5001C32.5 48.1631 32.2366 48.799 31.7678 49.2679C31.2989 49.7367 30.663 50.0001 30 50.0001H25C24.337 50.0001 23.7011 49.7367 23.2322 49.2679C22.7634 48.799 22.5 48.1631 22.5 47.5001M12.5 20.0001H22.5M22.5 40.0001H32.5M35 22.5001L45 20.0001M40 40.0001L49.8075 37.5501M34.5075 11.4001L39.9675 10.0751C41.3725 9.73761 42.8 10.5501 43.1725 11.9051L52.41 45.4501C52.573 46.0642 52.5008 46.7171 52.2077 47.2808C51.9145 47.8445 51.4214 48.2784 50.825 48.4976L50.4925 48.6001L45.0325 49.9251C43.6275 50.2626 42.2 49.4501 41.8275 48.0951L32.59 14.5501C32.4271 13.936 32.4992 13.2831 32.7924 12.7194C33.0856 12.1557 33.5787 11.7218 34.175 11.5026L34.5075 11.4001Z" stroke="#7D4230" stroke-width="2" stroke-linecap="round" stroke-linejoin="round"/>
</svg>
