<svg width="81" height="80" viewBox="0 0 81 80" fill="none" xmlns="http://www.w3.org/2000/svg">
<g clip-path="url(#clip0_15_120)">
<path d="M56.9999 36.6667C56.9999 45.8667 49.6079 53.3334 40.4999 53.3334C31.3919 53.3334 23.9999 45.8667 23.9999 36.6667H17.3999C17.3999 48.4334 26.0129 58.1001 37.1999 59.7334V70.0001H43.7999V59.7334C54.9869 58.1001 63.6 48.4334 63.6 36.6667H56.9999Z" fill="#FFE9C5"/>
<path d="M40.4999 46.6667C45.9779 46.6667 50.3999 42.2001 50.3999 36.6667V16.6667C50.3999 11.1334 45.9779 6.66675 40.4999 6.66675C35.0219 6.66675 30.5999 11.1334 30.5999 16.6667V36.6667C30.5999 42.2001 35.0219 46.6667 40.4999 46.6667ZM37.1999 16.6667C37.1999 14.8334 38.6849 13.3334 40.4999 13.3334C42.3149 13.3334 43.7999 14.8334 43.7999 16.6667V36.6667C43.7999 38.5001 42.3149 40.0001 40.4999 40.0001C38.6849 40.0001 37.1999 38.5001 37.1999 36.6667V16.6667Z" fill="#FFE9C5"/>
<path d="M40.4999 46.6667C45.9779 46.6667 50.3999 42.2001 50.3999 36.6667L43.7999 36.6668C43.7999 38.3334 42.498 40.0001 40.4999 40.0001C38.5019 40.0001 37.1999 38.3334 37.1999 36.6668L30.5999 36.6667C30.5999 42.2001 35.0219 46.6667 40.4999 46.6667Z" fill="#FFE9C5"/>
</g>
<defs>
<clipPath id="clip0_15_120">
<rect width="79.2001" height="80" fill="white" transform="translate(0.899902)"/>
</clipPath>
</defs>
</svg>
