<svg width="40" height="40" viewBox="0 0 40 40" fill="none" xmlns="http://www.w3.org/2000/svg">
<path d="M19.1667 36.25C9.75 36.25 2.08333 28.5833 2.08333 19.1667C2.08333 9.75001 9.75 2.08334 19.1667 2.08334C28.5833 2.08334 36.25 9.75001 36.25 19.1667C36.25 28.5833 28.5833 36.25 19.1667 36.25ZM19.1667 4.58334C11.1167 4.58334 4.58333 11.1333 4.58333 19.1667C4.58333 27.2 11.1167 33.75 19.1667 33.75C27.2167 33.75 33.75 27.2 33.75 19.1667C33.75 11.1333 27.2167 4.58334 19.1667 4.58334Z" fill="#FFE9C5"/>
<path d="M36.6667 37.9167C36.35 37.9167 36.0333 37.8 35.7833 37.55L32.45 34.2167C31.9667 33.7334 31.9667 32.9334 32.45 32.45C32.9333 31.9667 33.7333 31.9667 34.2167 32.45L37.55 35.7834C38.0333 36.2667 38.0333 37.0667 37.55 37.55C37.3 37.8 36.9833 37.9167 36.6667 37.9167Z" fill="#FFE9C5"/>
</svg>
