<svg width="50" height="50" viewBox="0 0 50 50" fill="none" xmlns="http://www.w3.org/2000/svg">
<path d="M20.8333 25C20.8333 26.1051 21.2723 27.1649 22.0537 27.9463C22.8351 28.7277 23.8949 29.1667 25 29.1667C26.1051 29.1667 27.1649 28.7277 27.9463 27.9463C28.7277 27.1649 29.1667 26.1051 29.1667 25C29.1667 23.8949 28.7277 22.8351 27.9463 22.0537C27.1649 21.2723 26.1051 20.8333 25 20.8333C23.8949 20.8333 22.8351 21.2723 22.0537 22.0537C21.2723 22.8351 20.8333 23.8949 20.8333 25Z" stroke="#7D4230" stroke-width="2" stroke-linecap="round" stroke-linejoin="round"/>
<path d="M43.75 25C38.75 33.3333 32.5 37.5 25 37.5C17.5 37.5 11.25 33.3333 6.25 25C11.25 16.6667 17.5 12.5 25 12.5C32.5 12.5 38.75 16.6667 43.75 25Z" stroke="#7D4230" stroke-width="2" stroke-linecap="round" stroke-linejoin="round"/>
</svg>
