<svg width="173" height="203" viewBox="0 0 173 203" fill="none" xmlns="http://www.w3.org/2000/svg">
<g filter="url(#filter0_ddddd_201_233)">
<path d="M14 26.4C14 21.3595 14 18.8393 14.9809 16.9141C15.8438 15.2206 17.2206 13.8438 18.9141 12.9809C20.8393 12 23.3595 12 28.4 12H31.6C36.6405 12 39.1607 12 41.0859 12.9809C42.7794 13.8438 44.1562 15.2206 45.0191 16.9141C46 18.8393 46 21.3595 46 26.4V29.6C46 34.6405 46 37.1607 45.0191 39.0859C44.1562 40.7794 42.7794 42.1562 41.0859 43.0191C39.1607 44 36.6405 44 31.6 44H28.4C23.3595 44 20.8393 44 18.9141 43.0191C17.2206 42.1562 15.8438 40.7794 14.9809 39.0859C14 37.1607 14 34.6405 14 29.6V26.4Z" fill="#E29675"/>
<path d="M28.4 12.5H31.6C34.1285 12.5 35.9948 12.5004 37.4705 12.621C38.9403 12.741 39.9785 12.9779 40.8589 13.4264C42.4583 14.2414 43.7586 15.5417 44.5736 17.1411C45.0221 18.0214 45.259 19.0597 45.379 20.5295C45.4996 22.0052 45.5 23.8715 45.5 26.4V29.6C45.5 32.1285 45.4996 33.9948 45.379 35.4705C45.259 36.9403 45.0221 37.9785 44.5736 38.8589C43.7586 40.4583 42.4583 41.7586 40.8589 42.5736C39.9785 43.0221 38.9403 43.259 37.4705 43.379C35.9948 43.4996 34.1285 43.5 31.6 43.5H28.4C25.8715 43.5 24.0052 43.4996 22.5295 43.379C21.0597 43.259 20.0214 43.0221 19.1411 42.5736C17.5417 41.7586 16.2414 40.4583 15.4264 38.8589C14.9779 37.9785 14.741 36.9403 14.621 35.4705C14.5004 33.9948 14.5 32.1285 14.5 29.6V26.4C14.5 23.8715 14.5004 22.0052 14.621 20.5295C14.741 19.0597 14.9779 18.0214 15.4264 17.1411C16.2414 15.5417 17.5417 14.2414 19.1411 13.4264C20.0214 12.9779 21.0597 12.741 22.5295 12.621C24.0052 12.5004 25.8715 12.5 28.4 12.5Z" stroke="#FFE9C5"/>
</g>
<mask id="path-3-inside-1_201_233" fill="white">
<path fill-rule="evenodd" clip-rule="evenodd" d="M37.422 20.596C38.0478 21.2218 38.0478 22.2364 37.422 22.8622L24.8734 35.4109C24.2476 36.0367 23.2329 36.0367 22.6071 35.4109V35.4109C21.9813 34.7851 21.9813 33.7705 22.6071 33.1447L35.1558 20.596C35.7816 19.9702 36.7962 19.9702 37.422 20.596V20.596Z"/>
<path fill-rule="evenodd" clip-rule="evenodd" d="M37.422 35.4109C36.7962 36.0367 35.7816 36.0367 35.1558 35.4109L22.6071 22.8622C21.9813 22.2364 21.9813 21.2218 22.6071 20.596V20.596C23.2329 19.9702 24.2476 19.9702 24.8734 20.596L37.422 33.1447C38.0478 33.7705 38.0478 34.7851 37.422 35.4109V35.4109Z"/>
</mask>
<path fill-rule="evenodd" clip-rule="evenodd" d="M37.422 20.596C38.0478 21.2218 38.0478 22.2364 37.422 22.8622L24.8734 35.4109C24.2476 36.0367 23.2329 36.0367 22.6071 35.4109V35.4109C21.9813 34.7851 21.9813 33.7705 22.6071 33.1447L35.1558 20.596C35.7816 19.9702 36.7962 19.9702 37.422 20.596V20.596Z" fill="white"/>
<path fill-rule="evenodd" clip-rule="evenodd" d="M37.422 35.4109C36.7962 36.0367 35.7816 36.0367 35.1558 35.4109L22.6071 22.8622C21.9813 22.2364 21.9813 21.2218 22.6071 20.596V20.596C23.2329 19.9702 24.2476 19.9702 24.8734 20.596L37.422 33.1447C38.0478 33.7705 38.0478 34.7851 37.422 35.4109V35.4109Z" fill="white"/>
<path d="M35.1558 35.4109L31.8453 38.7214L35.1558 35.4109ZM22.6071 33.1447L19.2966 29.8342L22.6071 33.1447ZM24.8734 35.4109L21.5629 32.1004L24.8734 35.4109ZM28.1839 38.7214L40.7325 26.1727L34.1115 19.5518L21.5629 32.1004L28.1839 38.7214ZM31.8453 17.2855L19.2966 29.8342L25.9176 36.4552L38.4663 23.9065L31.8453 17.2855ZM19.2966 26.1727L31.8453 38.7214L38.4663 32.1004L25.9176 19.5518L19.2966 26.1727ZM40.7325 29.8342L28.1838 17.2855L21.5629 23.9065L34.1115 36.4552L40.7325 29.8342ZM34.1115 36.4552C32.909 35.2526 32.909 33.3029 34.1115 32.1004L40.7325 38.7214C43.1867 36.2673 43.1867 32.2883 40.7325 29.8342L34.1115 36.4552ZM25.9176 23.9065C24.7151 25.109 22.7654 25.109 21.5629 23.9065L28.1838 17.2855C25.7297 14.8314 21.7508 14.8314 19.2966 17.2855L25.9176 23.9065ZM31.8453 38.7214C34.2994 41.1755 38.2784 41.1755 40.7325 38.7214L34.1115 32.1004C35.3141 30.8979 37.2637 30.8979 38.4663 32.1004L31.8453 38.7214ZM25.9176 19.5518C27.1201 20.7543 27.1201 22.704 25.9176 23.9065L19.2966 17.2855C16.8425 19.7397 16.8425 23.7186 19.2966 26.1727L25.9176 19.5518ZM38.4663 23.9065C37.2638 25.109 35.3141 25.109 34.1115 23.9065L40.7325 17.2855C38.2784 14.8314 34.2994 14.8314 31.8453 17.2855L38.4663 23.9065ZM25.9176 32.1004C27.1201 33.3029 27.1201 35.2526 25.9176 36.4552L19.2966 29.8342C16.8425 32.2883 16.8425 36.2673 19.2966 38.7214L25.9176 32.1004ZM40.7325 26.1727C43.1867 23.7186 43.1867 19.7397 40.7325 17.2855L34.1115 23.9065C32.909 22.704 32.909 20.7543 34.1115 19.5518L40.7325 26.1727ZM21.5629 32.1004C22.7654 30.8979 24.7151 30.8979 25.9176 32.1004L19.2966 38.7214C21.7508 41.1755 25.7297 41.1755 28.1839 38.7214L21.5629 32.1004Z" fill="#FFE9C5" mask="url(#path-3-inside-1_201_233)"/>
<defs>
<filter id="filter0_ddddd_201_233" x="0.428768" y="0.516649" width="171.888" height="202.162" filterUnits="userSpaceOnUse" color-interpolation-filters="sRGB">
<feFlood flood-opacity="0" result="BackgroundImageFix"/>
<feColorMatrix in="SourceAlpha" type="matrix" values="0 0 0 0 0 0 0 0 0 0 0 0 0 0 0 0 0 0 127 0" result="hardAlpha"/>
<feOffset/>
<feColorMatrix type="matrix" values="0 0 0 0 0 0 0 0 0 0 0 0 0 0 0 0 0 0 0.15 0"/>
<feBlend mode="normal" in2="BackgroundImageFix" result="effect1_dropShadow_201_233"/>
<feColorMatrix in="SourceAlpha" type="matrix" values="0 0 0 0 0 0 0 0 0 0 0 0 0 0 0 0 0 0 127 0" result="hardAlpha"/>
<feOffset dx="4.17576" dy="6.26365"/>
<feGaussianBlur stdDeviation="8.8735"/>
<feColorMatrix type="matrix" values="0 0 0 0 0 0 0 0 0 0 0 0 0 0 0 0 0 0 0.15 0"/>
<feBlend mode="normal" in2="effect1_dropShadow_201_233" result="effect2_dropShadow_201_233"/>
<feColorMatrix in="SourceAlpha" type="matrix" values="0 0 0 0 0 0 0 0 0 0 0 0 0 0 0 0 0 0 127 0" result="hardAlpha"/>
<feOffset dx="18.7909" dy="27.1425"/>
<feGaussianBlur stdDeviation="16.1811"/>
<feColorMatrix type="matrix" values="0 0 0 0 0 0 0 0 0 0 0 0 0 0 0 0 0 0 0.13 0"/>
<feBlend mode="normal" in2="effect2_dropShadow_201_233" result="effect3_dropShadow_201_233"/>
<feColorMatrix in="SourceAlpha" type="matrix" values="0 0 0 0 0 0 0 0 0 0 0 0 0 0 0 0 0 0 127 0" result="hardAlpha"/>
<feOffset dx="41.7576" dy="59.5046"/>
<feGaussianBlur stdDeviation="21.9228"/>
<feColorMatrix type="matrix" values="0 0 0 0 0 0 0 0 0 0 0 0 0 0 0 0 0 0 0.08 0"/>
<feBlend mode="normal" in2="effect3_dropShadow_201_233" result="effect4_dropShadow_201_233"/>
<feColorMatrix in="SourceAlpha" type="matrix" values="0 0 0 0 0 0 0 0 0 0 0 0 0 0 0 0 0 0 127 0" result="hardAlpha"/>
<feOffset dx="74.1198" dy="106.482"/>
<feGaussianBlur stdDeviation="26.0985"/>
<feColorMatrix type="matrix" values="0 0 0 0 0 0 0 0 0 0 0 0 0 0 0 0 0 0 0.02 0"/>
<feBlend mode="normal" in2="effect4_dropShadow_201_233" result="effect5_dropShadow_201_233"/>
<feBlend mode="normal" in="SourceGraphic" in2="effect5_dropShadow_201_233" result="shape"/>
</filter>
</defs>
</svg>
